<svg width="43" height="43" viewBox="0 0 43 43" fill="none" xmlns="http://www.w3.org/2000/svg">
<path fill-rule="evenodd" clip-rule="evenodd" d="M21.4138 43C33.2403 43 42.8276 33.4086 42.8276 21.5771C42.8276 9.74558 33.2403 0.154236 21.4138 0.154236C9.58729 0.154236 0 9.74558 0 21.5771C0 33.4086 9.58729 43 21.4138 43ZM8.76128 28.7129C10.0786 30.5014 11.9604 31.3956 14.4067 31.3956C16.0439 31.3956 17.4271 30.9909 18.5562 30.1813C19.6853 29.3718 20.5415 28.1952 21.1248 26.6514C21.7082 25.1077 21.9999 23.2345 21.9999 21.0318C21.9999 17.7184 21.3507 15.1957 20.0522 13.4637C18.7537 11.7317 16.8719 10.8657 14.4067 10.8657C12.7696 10.8657 11.3864 11.2516 10.2573 12.0235C9.12824 12.7954 8.27201 13.9438 7.68864 15.4687C7.10528 16.9748 6.8136 18.8386 6.8136 21.0601C6.8136 24.3546 7.46283 26.9056 8.76128 28.7129ZM16.4109 25.8043C15.9781 26.7832 15.31 27.2727 14.4067 27.2727C13.5035 27.2727 12.826 26.7832 12.3744 25.8043C11.9416 24.8065 11.7251 23.2157 11.7251 21.0318C11.7251 18.8668 11.9416 17.3231 12.3744 16.4006C12.826 15.4593 13.5035 14.9886 14.4067 14.9886C15.31 14.9886 15.9781 15.4593 16.4109 16.4006C16.8625 17.3231 17.0883 18.8668 17.0883 21.0318C17.0883 23.2157 16.8625 24.8065 16.4109 25.8043ZM30.0336 27.9787C30.3347 28.2799 30.7676 28.4305 31.3321 28.4305C31.9155 28.4305 32.3483 28.2799 32.6306 27.9787C32.9316 27.6586 33.0822 27.2162 33.0822 26.6514V22.8674H36.78C37.3257 22.8674 37.7397 22.7262 38.022 22.4438C38.3231 22.1614 38.4736 21.7472 38.4736 21.2013C38.4736 20.6553 38.3231 20.2411 38.022 19.9587C37.7397 19.6763 37.3257 19.5351 36.78 19.5351H33.0822V15.8923C33.0822 15.3275 32.9316 14.8945 32.6306 14.5933C32.3483 14.2921 31.9249 14.1415 31.3603 14.1415C30.777 14.1415 30.3347 14.2921 30.0336 14.5933C29.7326 14.8945 29.582 15.3275 29.582 15.8923V19.5351H25.8842C25.3385 19.5351 24.9151 19.6763 24.614 19.9587C24.3317 20.2411 24.1906 20.6553 24.1906 21.2013C24.1906 21.7472 24.3317 22.1614 24.614 22.4438C24.9151 22.7262 25.3385 22.8674 25.8842 22.8674H29.582V26.6514C29.582 27.2162 29.7326 27.6586 30.0336 27.9787Z" fill="#0D1288"/>
</svg>
