<svg width="43" height="34" viewBox="0 0 43 34" fill="none" xmlns="http://www.w3.org/2000/svg">
<path fill-rule="evenodd" clip-rule="evenodd" d="M12.1112 31.5932C10.8579 23.5892 11.1223 13.0034 17.5764 6.23184C24.6185 -1.15666 35.8783 -0.609968 41.4009 1.0193C43.1124 1.52423 43.1856 3.42169 42.1437 4.87036C40.4799 7.18361 39.2834 10.1523 37.8617 13.6798C36.7975 16.3202 35.607 19.2738 34 22.5C30.6473 29.2307 24.1716 33.3128 14.9936 33.9212C14.9358 33.925 14.8783 33.927 14.8212 33.9272C17.9348 26.8207 21.4012 19.2596 26.4668 13.4344C27.2409 12.5443 26.4156 11.3415 25.502 12.0877C19.6814 16.842 15.0692 24.3154 12.4149 32.4931C12.2665 32.2197 12.1619 31.9168 12.1112 31.5932Z" fill="#0D1288"/>
<path fill-rule="evenodd" clip-rule="evenodd" d="M10.3709 15.1588C9.58812 17.9629 9.21766 21.2882 9.57642 25.151C9.64946 25.9375 8.86029 26.5546 8.20633 26.1394C0.855117 21.4724 -0.59883 7.98422 0.192593 1.0597C0.2471 0.582792 0.641586 0.213766 1.11568 0.188218C7.70543 -0.1669 13.6742 1.87984 16.639 3.30159C17.3092 3.62301 17.2833 4.56361 16.683 5.04557C15.0514 6.35535 13.1594 8.50842 11.7182 11.5415C10.428 10.1244 7.52357 7.2633 5.32074 5.53739C4.57514 4.95322 4.25306 5.44525 4.86799 6.16569C6.94244 8.59609 9.50755 12.361 10.3709 15.1588Z" fill="#0D1288"/>
</svg>
