<svg width="41" height="41" viewBox="0 0 41 41" fill="none" xmlns="http://www.w3.org/2000/svg">
<circle cx="20.5" cy="20.5" r="20.5" fill="url(#paint0_linear_6_216)"/>
<path d="M7.432 26C7.016 26 6.696 25.888 6.472 25.664C6.248 25.44 6.136 25.12 6.136 24.704V16.016C6.136 15.6 6.248 15.28 6.472 15.056C6.696 14.832 7.016 14.72 7.432 14.72H11.304C12.104 14.72 12.7867 14.8373 13.352 15.072C13.9173 15.3067 14.344 15.6427 14.632 16.08C14.9307 16.5173 15.08 17.04 15.08 17.648C15.08 18.32 14.888 18.8907 14.504 19.36C14.12 19.8293 13.592 20.144 12.92 20.304V20.048C13.6987 20.1867 14.3013 20.496 14.728 20.976C15.1653 21.4453 15.384 22.0587 15.384 22.816C15.384 23.8187 15.0373 24.6027 14.344 25.168C13.6507 25.7227 12.696 26 11.48 26H7.432ZM8.504 24.16H11.144C11.784 24.16 12.2533 24.0373 12.552 23.792C12.8507 23.536 13 23.1627 13 22.672C13 22.1813 12.8507 21.8133 12.552 21.568C12.2533 21.3227 11.784 21.2 11.144 21.2H8.504V24.16ZM8.504 19.36H10.872C11.4907 19.36 11.9493 19.2427 12.248 19.008C12.5467 18.7733 12.696 18.4213 12.696 17.952C12.696 17.4933 12.5467 17.1467 12.248 16.912C11.9493 16.6773 11.4907 16.56 10.872 16.56H8.504V19.36ZM18.317 26C17.9757 26 17.7143 25.9093 17.533 25.728C17.3517 25.5467 17.261 25.296 17.261 24.976C17.261 24.6453 17.3517 24.3947 17.533 24.224C17.7143 24.0533 17.9757 23.968 18.317 23.968H19.933V16.752H21.101L18.765 18.176C18.5197 18.3253 18.2903 18.384 18.077 18.352C17.8743 18.32 17.6983 18.2293 17.549 18.08C17.3997 17.9307 17.2983 17.7547 17.245 17.552C17.2023 17.3387 17.2237 17.1307 17.309 16.928C17.3943 16.7147 17.5543 16.5333 17.789 16.384L20.013 15.04C20.237 14.9013 20.461 14.7893 20.685 14.704C20.9197 14.6187 21.149 14.576 21.373 14.576C21.693 14.576 21.9437 14.6613 22.125 14.832C22.317 14.992 22.413 15.2427 22.413 15.584V23.968H23.869C24.1997 23.968 24.4557 24.0533 24.637 24.224C24.8183 24.3947 24.909 24.6453 24.909 24.976C24.909 25.3067 24.8183 25.5627 24.637 25.744C24.4557 25.9147 24.1997 26 23.869 26H18.317ZM27.2868 26C26.8921 26 26.5988 25.9093 26.4068 25.728C26.2254 25.536 26.1348 25.2587 26.1348 24.896C26.1348 24.6613 26.1934 24.4427 26.3108 24.24C26.4281 24.0373 26.5881 23.8293 26.7908 23.616L29.7988 20.448C30.2468 19.968 30.5668 19.5413 30.7588 19.168C30.9614 18.7947 31.0628 18.4213 31.0628 18.048C31.0628 17.5787 30.9081 17.2213 30.5988 16.976C30.3001 16.7307 29.8628 16.608 29.2868 16.608C28.9774 16.608 28.6574 16.656 28.3268 16.752C28.0068 16.8373 27.6708 16.9813 27.3188 17.184C27.0841 17.312 26.8654 17.36 26.6628 17.328C26.4708 17.2853 26.3054 17.1947 26.1668 17.056C26.0281 16.9067 25.9374 16.7307 25.8948 16.528C25.8521 16.3253 25.8734 16.1227 25.9588 15.92C26.0441 15.7173 26.2041 15.5467 26.4388 15.408C26.9081 15.12 27.4201 14.9067 27.9748 14.768C28.5294 14.6187 29.0788 14.544 29.6228 14.544C30.4654 14.544 31.1748 14.672 31.7508 14.928C32.3268 15.1733 32.7641 15.536 33.0628 16.016C33.3614 16.496 33.5108 17.0827 33.5108 17.776C33.5108 18.224 33.4414 18.6613 33.3028 19.088C33.1641 19.5147 32.9454 19.9467 32.6468 20.384C32.3588 20.8107 31.9748 21.2693 31.4948 21.76L28.6948 24.608V23.968H33.0308C33.3721 23.968 33.6281 24.0533 33.7988 24.224C33.9801 24.3947 34.0708 24.6453 34.0708 24.976C34.0708 25.3067 33.9801 25.5627 33.7988 25.744C33.6281 25.9147 33.3721 26 33.0308 26H27.2868Z" fill="white"/>
<defs>
<linearGradient id="paint0_linear_6_216" x1="17.4853" y1="5.72794" x2="31.6544" y2="47.0294" gradientUnits="userSpaceOnUse">
<stop stop-color="#79CFFF"/>
<stop offset="0.861117" stop-color="#5400DC"/>
</linearGradient>
</defs>
</svg>
