<svg width="99" height="60" viewBox="0 0 99 60" fill="none" xmlns="http://www.w3.org/2000/svg">
<g clip-path="url(#clip0_6_401)">
<path d="M37.395 52.4825C37.2064 52.3521 36.9787 52.2905 36.75 52.3078H35.795V53.6755H36.75C36.9781 53.6943 37.2058 53.6344 37.395 53.5058C37.4662 53.4442 37.5225 53.3673 37.5598 53.2808C37.597 53.1944 37.6142 53.1006 37.61 53.0066C37.6198 52.9084 37.6053 52.8092 37.5678 52.7179C37.5304 52.6265 37.471 52.5457 37.395 52.4825Z" fill="white"/>
<path d="M57.585 52.6123L56.815 54.4393H58.37L57.595 52.6123H57.585Z" fill="white"/>
<path d="M65.275 37.8918L63.355 42.4692H67.25L65.315 37.8918H65.275Z" fill="white"/>
<path d="M95.715 34.3627C95.765 34.183 95.815 34.0033 95.86 33.8186C96.5709 33.6175 97.191 33.1788 97.6167 32.576C98.0424 31.9731 98.2479 31.2425 98.1987 30.5066C98.1495 29.7706 97.8487 29.0738 97.3465 28.5327C96.8444 27.9916 96.1713 27.6391 95.44 27.5341C94.215 24.7487 91.595 22.792 88.475 21.9284C87.7022 21.7147 86.9015 21.6188 86.1 21.6439C87.45 20.8602 88.52 19.762 88.745 18.7936C88.945 17.9251 88.41 17.391 87.44 17.2961C87.6375 16.9585 87.7216 16.5667 87.68 16.178C87.48 15.0599 85.64 15.0249 83.56 16.1031C82.015 16.9068 80.775 18.0998 80.33 19.0981C80.1294 19.0722 79.9273 19.0589 79.725 19.0582C77.165 19.0582 74.225 21.4242 74.195 23.6805C74.195 25.5474 76.195 26.7404 78.31 27.1098C78.1014 27.5466 77.9178 27.9949 77.76 28.4525H73.455C69.92 22.8469 66.585 15.1597 65.91 13.5723C68.16 14.6505 69.515 15.3643 71.075 14.8802C74.575 13.787 75.955 9.43922 75.345 9.05985C71.875 6.90844 69.565 7.48747 67.775 7.98664C68.291 7.5223 68.7432 6.99192 69.12 6.40927C69.7136 5.48173 70.0896 4.43233 70.22 3.33939C70.2443 3.15654 70.2086 2.97076 70.1183 2.80986C70.028 2.64897 69.8879 2.52161 69.719 2.44685C69.5501 2.3721 69.3615 2.35397 69.1814 2.39519C69.0013 2.43641 68.8394 2.53475 68.72 2.67549L68.685 2.71543C68.1385 3.36452 67.5307 3.95961 66.87 4.49247C66.2812 4.95739 65.6255 5.33097 64.925 5.60062C64.2345 5.85848 63.5136 6.02625 62.78 6.09979C62.1716 6.15333 61.5602 6.16667 60.95 6.13972C59.8877 5.80196 58.7938 5.57283 57.685 5.45586C56.7197 5.33783 55.7452 5.31276 54.775 5.38099C54.1312 5.20835 53.497 5.00174 52.875 4.76202C52.2538 4.52323 51.6657 4.20619 51.125 3.81859C50.5696 3.4063 50.0659 2.92864 49.625 2.39596C49.125 1.82691 48.68 1.15303 48.125 0.399288L48.09 0.349371C47.9869 0.207974 47.8441 0.100307 47.6796 0.0400092C47.5152 -0.0202887 47.3365 -0.0305047 47.1663 0.010655C46.996 0.0518148 46.8418 0.142498 46.7232 0.27122C46.6046 0.399941 46.5269 0.560907 46.5 0.733731C46.3341 1.78506 46.4268 2.86089 46.77 3.86851C47.069 4.75226 47.5453 5.56585 48.17 6.25952C46.7917 5.72651 45.3229 5.46545 43.845 5.4908C43.245 5.4908 40.545 5.72042 39.94 6.29446C39.59 6.62891 40.03 10.4525 41.875 11.9101C44.63 14.0865 48.48 11.7304 48.645 11.6306C48.61 11.7454 47.37 15.4392 46.785 17.9251C46.2989 19.8247 46.155 21.7955 46.36 23.7454C46.415 23.97 46.475 24.1896 46.55 24.4093C46.668 24.7973 46.8186 25.1746 47 25.5374C47.141 25.8568 47.3083 26.164 47.5 26.4559C48.3144 27.7236 49.4971 28.7128 50.89 29.2911C52.3668 29.8161 53.9364 30.0302 55.5 29.9201C56.3053 29.8927 57.1059 29.7856 57.89 29.6006C58.6719 29.4234 59.4257 29.1395 60.13 28.757C60.2158 28.7138 60.3147 28.7042 60.4072 28.7301C60.4997 28.756 60.5792 28.8154 60.63 28.8968C60.6599 28.9484 60.6754 29.0069 60.675 29.0665C60.6758 29.1216 60.6635 29.1761 60.6392 29.2255C60.6149 29.275 60.5792 29.318 60.535 29.351C59.085 30.3751 57.3963 31.011 55.63 31.198C54.9974 31.2886 54.3591 31.3336 53.72 31.3327C53.475 31.3327 53.22 31.3327 52.985 31.3327C52.0721 31.3019 51.1674 31.1491 50.295 30.8785C48.9714 30.405 47.774 29.6348 46.795 28.6272C46.755 28.5823 46.71 28.5424 46.675 28.4975H38.385C38.1624 28.0779 37.9943 27.6317 37.885 27.1697C38.7075 26.8109 39.4325 26.2616 40 25.5673C41.6298 24.0779 42.7874 22.1449 43.33 20.0066C43.33 19.9667 43.33 19.9317 43.33 19.8918L43.36 19.7371C43.3961 19.5159 43.4145 19.2922 43.415 19.0682C43.417 18.7498 43.3868 18.4321 43.325 18.1198L44.225 16.7171C44.2359 16.7021 44.2418 16.6842 44.2421 16.6658C44.2424 16.6473 44.237 16.6292 44.2266 16.614C44.2162 16.5987 44.2014 16.587 44.1841 16.5804C44.1668 16.5739 44.1479 16.5728 44.13 16.5773L42.79 16.8119C42.15 15.8735 41.045 15.3643 39.6 15.3643C38.005 15.3643 36.895 16.782 35.77 18.2995C35.17 18.2495 34.575 18.2346 34.01 18.2346C30.87 18.2346 29.235 18.3793 29.235 21.5091C29.235 24.0349 31.355 26.4359 33.82 27.2745C33.9205 27.6838 34.0492 28.0858 34.205 28.4775H23.38C25.235 26.8171 26.6154 24.695 27.38 22.3277C27.635 21.574 27.48 21.2845 26.72 20.9101C24.145 19.6422 19.31 18.6239 15.08 20.4459C14.945 20.5008 14.815 20.5707 14.685 20.6356C14.12 20.5008 12.975 20.4159 10.685 20.7504C9.34003 20.965 7.95503 21.4642 7.50003 22.153C7.15003 22.6522 7.46003 22.9367 8.00003 23.356L10.065 24.8835C9.08928 26.26 8.23126 27.7161 7.50003 29.2362C5.31251 29.5056 3.22112 30.2928 1.40003 31.5324C1.32402 31.5893 1.2649 31.6657 1.22898 31.7535C1.19306 31.8413 1.18167 31.9372 1.19604 32.031C1.21041 32.1247 1.24999 32.2129 1.31057 32.2859C1.37115 32.359 1.45045 32.4143 1.54003 32.4459L4.17003 33.3294C1.48494 36.1765 -0.0070851 39.9414 2.52975e-05 43.8519V44.6256C2.52975e-05 48.7031 1.62252 52.6136 4.51058 55.4969C7.39864 58.3802 11.3157 60 15.4 60H84.29C88.1914 60 91.9329 58.4527 94.6916 55.6987C97.4502 52.9446 99 49.2093 99 45.3144V43.8519C99.0034 40.4103 97.8463 37.0677 95.715 34.3627ZM53.315 17.7554C53.2641 17.7753 53.2098 17.7855 53.155 17.7853C53.0637 17.7859 52.975 17.7541 52.905 17.6955C52.3396 17.2045 51.6459 16.8842 50.905 16.772C50.561 16.7116 50.2091 16.7116 49.865 16.772C49.5382 16.8333 49.2361 16.9876 48.995 17.2163C48.922 17.2888 48.8231 17.3295 48.72 17.3295C48.617 17.3295 48.5181 17.2888 48.445 17.2163C48.3956 17.1648 48.3616 17.1007 48.3465 17.0311C48.3315 16.9615 48.3362 16.8891 48.36 16.8219C48.4656 16.5624 48.6255 16.3284 48.829 16.1356C49.0325 15.9427 49.2749 15.7955 49.54 15.7038C50.0301 15.5152 50.5611 15.4584 51.08 15.5391C51.5889 15.6156 52.0741 15.8049 52.5 16.0931C52.9367 16.37 53.284 16.767 53.5 17.2362C53.5221 17.2824 53.5348 17.3325 53.5374 17.3836C53.54 17.4347 53.5325 17.4859 53.5153 17.5341C53.4981 17.5823 53.4716 17.6267 53.4372 17.6646C53.4029 17.7026 53.3613 17.7334 53.315 17.7554ZM40.815 16.8968C40.9584 16.881 41.1032 16.9079 41.2312 16.9742C41.3592 17.0405 41.4647 17.1431 41.5343 17.2691C41.604 17.3952 41.6347 17.539 41.6225 17.6824C41.6104 17.8259 41.556 17.9625 41.4662 18.0752C41.3764 18.1878 41.2552 18.2713 41.1178 18.3152C40.9805 18.3591 40.8332 18.3615 40.6946 18.3219C40.5559 18.2824 40.4321 18.2027 40.3388 18.093C40.2454 17.9833 40.1867 17.8484 40.17 17.7054C40.149 17.5122 40.2056 17.3185 40.3275 17.1669C40.4493 17.0153 40.6265 16.9181 40.82 16.8968H40.815ZM60.6 19.6023C60.5298 19.598 60.4621 19.5749 60.404 19.5353C60.3459 19.4958 60.2996 19.4413 60.27 19.3777C60.1326 19.0751 59.9125 18.8173 59.635 18.6339C59.3448 18.4418 59.0234 18.3016 58.685 18.2196C57.9655 18.0389 57.2093 18.0666 56.505 18.2995C56.4202 18.3299 56.3274 18.3301 56.2424 18.3C56.1574 18.2699 56.0855 18.2113 56.039 18.1342C55.9924 18.0571 55.974 17.9663 55.987 17.8772C56 17.7881 56.0434 17.7062 56.11 17.6455C56.4864 17.2998 56.9524 17.0663 57.455 16.9717C57.9528 16.8798 58.4645 16.8969 58.955 17.0216C59.4654 17.15 59.9339 17.408 60.315 17.7703C60.5238 17.9597 60.6901 18.191 60.803 18.4491C60.9159 18.7072 60.9728 18.9862 60.97 19.2678C60.9574 19.3572 60.9141 19.4394 60.8476 19.5004C60.781 19.5614 60.6953 19.5974 60.605 19.6023H60.6ZM35.66 27.589C35.9413 27.5888 36.2221 27.5671 36.5 27.5241C36.5874 27.8486 36.696 28.1671 36.825 28.4775H35.825C35.6629 28.1905 35.5305 27.8878 35.43 27.574L35.66 27.589ZM22.28 22.0532C22.3084 21.8946 22.3833 21.748 22.4953 21.632C22.6072 21.516 22.7511 21.4357 22.9087 21.4014C23.0664 21.3671 23.2307 21.3803 23.3809 21.4393C23.531 21.4983 23.6602 21.6005 23.7521 21.7329C23.8441 21.8653 23.8945 22.0219 23.8972 22.183C23.8998 22.3441 23.8546 22.5023 23.767 22.6376C23.6795 22.773 23.5537 22.8793 23.4056 22.9433C23.2575 23.0072 23.0937 23.0257 22.935 22.9966C22.8298 22.978 22.7293 22.9387 22.6393 22.8812C22.5493 22.8236 22.4717 22.7488 22.4108 22.6611C22.3499 22.5734 22.307 22.4745 22.2845 22.3702C22.2621 22.2659 22.2606 22.1581 22.28 22.0532ZM24.535 36.3144L19.67 46.9817C19.5153 47.3789 19.252 47.7248 18.91 47.98C18.5459 48.2091 18.1199 48.3206 17.69 48.2995C17.2554 48.3205 16.8247 48.2091 16.455 47.98C16.1062 47.7245 15.8332 47.3796 15.665 46.9817L10.825 36.3144C10.6226 35.9282 10.5524 35.4864 10.625 35.0565C10.6911 34.7038 10.8919 34.3906 11.185 34.183C11.5104 33.9678 11.895 33.8595 12.285 33.8735C12.7251 33.8409 13.162 33.9686 13.515 34.2329C13.8273 34.5307 14.0697 34.8938 14.225 35.2961L17.75 43.4276L21.25 35.2762C21.4127 34.8706 21.6698 34.5095 22 34.2229C22.3406 33.9728 22.7579 33.8492 23.18 33.8735C23.5526 33.8619 23.919 33.9704 24.225 34.183C24.5069 34.396 24.6965 34.7085 24.755 35.0565C24.8125 35.4884 24.7357 35.9275 24.535 36.3144ZM28.535 47.6505C28.3611 47.4616 28.2271 47.2395 28.1412 46.9976C28.0553 46.7557 28.0192 46.499 28.035 46.2429V35.9401C28.0197 35.6832 28.056 35.4258 28.1419 35.1832C28.2277 34.9406 28.3614 34.7176 28.535 34.5274C28.728 34.3532 28.9539 34.2193 29.1995 34.1335C29.4451 34.0478 29.7054 34.012 29.965 34.0282H36.75C37.145 34.0004 37.5351 34.1296 37.835 34.3876C37.9631 34.5299 38.061 34.6965 38.1229 34.8775C38.1847 35.0585 38.2093 35.2502 38.195 35.4409C38.2189 35.8302 38.0898 36.2134 37.835 36.5091C37.6885 36.6406 37.5168 36.7411 37.3304 36.8046C37.1439 36.868 36.9465 36.8932 36.75 36.8785H31.57V39.554H36.31C36.7017 39.5288 37.0876 39.6579 37.385 39.9134C37.6247 40.2152 37.7552 40.589 37.7552 40.9742C37.7552 41.3593 37.6247 41.7331 37.385 42.0349C37.0876 42.2905 36.7017 42.4195 36.31 42.3943H31.57V45.2895H36.75C36.9465 45.2748 37.1439 45.2999 37.3304 45.3634C37.5168 45.4269 37.6885 45.5274 37.835 45.6589C38.0686 45.9605 38.1953 46.3309 38.1953 46.7121C38.1953 47.0933 38.0686 47.4637 37.835 47.7653C37.5351 48.0234 37.145 48.1526 36.75 48.1247H29.965C29.707 48.1455 29.4474 48.1142 29.2018 48.0327C28.9561 47.9513 28.7293 47.8213 28.535 47.6505ZM38.535 56.2812C38.435 56.3531 38.3131 56.3884 38.19 56.381C38.0599 56.3874 37.9309 56.3543 37.82 56.2861C37.717 56.2064 37.6319 56.1061 37.57 55.9916L36.91 54.7737C36.8567 54.6626 36.7691 54.5716 36.66 54.5141C36.5464 54.4655 36.4236 54.4417 36.3 54.4442H35.8V55.8319C35.8097 55.9791 35.7613 56.1243 35.665 56.2362C35.6137 56.2876 35.5517 56.3271 35.4835 56.3521C35.4153 56.3771 35.3424 56.387 35.27 56.381C35.1968 56.3877 35.123 56.3782 35.0538 56.3532C34.9847 56.3282 34.9219 56.2882 34.87 56.2362C34.7738 56.1243 34.7253 55.9791 34.735 55.8319V52.0183C34.7298 51.9449 34.7395 51.8713 34.7636 51.8018C34.7876 51.7323 34.8255 51.6684 34.875 51.6139C34.9856 51.5186 35.1292 51.4703 35.275 51.4792H36.95C37.4007 51.4496 37.8462 51.5884 38.2 51.8685C38.3498 52.0069 38.4669 52.1767 38.543 52.3658C38.6191 52.5548 38.6522 52.7583 38.64 52.9617C38.6466 53.2363 38.5774 53.5074 38.44 53.7454C38.3038 53.9664 38.1032 54.1406 37.865 54.2445C37.7666 54.2858 37.6645 54.3175 37.56 54.3394C37.6414 54.363 37.7188 54.3983 37.79 54.4442C37.9482 54.5547 38.0769 54.702 38.165 54.8735L38.595 55.6622C38.6543 55.7655 38.6854 55.8826 38.685 56.0016C38.6842 56.0547 38.6721 56.107 38.6497 56.1552C38.6273 56.2033 38.5951 56.2462 38.555 56.2812H38.535ZM43.665 54.2845C43.6771 54.685 43.5967 55.083 43.43 55.4475C43.2788 55.753 43.031 56.0004 42.725 56.1514C42.3654 56.3185 41.9715 56.3989 41.575 56.386C41.2663 56.3916 40.9588 56.3461 40.665 56.2512C40.4164 56.1715 40.189 56.0367 40 55.8569C39.8153 55.6738 39.6765 55.4498 39.595 55.2029C39.5018 54.9059 39.4579 54.5957 39.465 54.2845V51.9484C39.4598 51.8769 39.4701 51.8051 39.4951 51.738C39.5202 51.6708 39.5594 51.6098 39.6102 51.5592C39.6609 51.5085 39.722 51.4693 39.7893 51.4443C39.8566 51.4193 39.9284 51.4091 40 51.4143C40.0721 51.4096 40.1444 51.4207 40.2118 51.4466C40.2792 51.4725 40.3402 51.5127 40.3906 51.5644C40.441 51.6161 40.4795 51.6781 40.5036 51.7461C40.5277 51.8141 40.5367 51.8865 40.53 51.9584V54.2995C40.5062 54.618 40.6006 54.9343 40.795 55.188C40.8957 55.2911 41.0176 55.3713 41.1522 55.423C41.2868 55.4747 41.4311 55.4967 41.575 55.4875C41.7182 55.4959 41.8615 55.4736 41.9952 55.4219C42.1289 55.3702 42.2499 55.2904 42.35 55.188C42.5445 54.9343 42.6388 54.618 42.615 54.2995V51.9584C42.608 51.8847 42.6174 51.8104 42.6426 51.7409C42.6678 51.6713 42.7082 51.6082 42.7608 51.5561C42.8134 51.5041 42.877 51.4643 42.9469 51.4398C43.0168 51.4152 43.0913 51.4065 43.165 51.4143C43.2354 51.4091 43.3062 51.4189 43.3725 51.443C43.4389 51.4671 43.4994 51.5049 43.55 51.554C43.5984 51.609 43.6352 51.6731 43.6584 51.7426C43.6816 51.812 43.6907 51.8854 43.685 51.9584L43.665 54.2845ZM48.165 55.4975C48.0756 55.6932 47.9401 55.8645 47.77 55.9966C47.5805 56.137 47.3671 56.2419 47.14 56.3061C46.8746 56.3791 46.6003 56.4144 46.325 56.4109C45.9323 56.4087 45.5419 56.3515 45.165 56.2412C44.9898 56.1937 44.8217 56.1232 44.665 56.0316C44.5715 55.9858 44.4959 55.9103 44.45 55.8169C44.4102 55.733 44.3946 55.6397 44.405 55.5474C44.4135 55.4569 44.4502 55.3713 44.51 55.3028C44.5648 55.2321 44.6426 55.1826 44.73 55.163C44.8334 55.1459 44.9395 55.1653 45.03 55.2179C45.2224 55.3247 45.4297 55.4021 45.645 55.4475C45.8632 55.4972 46.0863 55.5223 46.31 55.5224C46.5585 55.5438 46.8077 55.4899 47.025 55.3677C47.0896 55.3265 47.1428 55.2696 47.1795 55.2024C47.2162 55.1352 47.2353 55.0599 47.235 54.9833C47.2374 54.922 47.225 54.861 47.1989 54.8054C47.1728 54.7498 47.1338 54.7013 47.085 54.6638C46.923 54.5646 46.7429 54.4984 46.555 54.4692L45.78 54.3044C45.4029 54.2456 45.0534 54.0712 44.78 53.8053C44.671 53.6883 44.5866 53.5508 44.5316 53.4008C44.4767 53.2508 44.4523 53.0913 44.46 52.9317C44.4559 52.7155 44.5039 52.5015 44.6 52.3078C44.6987 52.1136 44.8386 51.9433 45.01 51.8086C45.1932 51.663 45.4042 51.556 45.63 51.4941C45.9136 51.4198 46.2076 51.3928 46.5 51.4143C46.7544 51.414 47.0079 51.4442 47.255 51.5041C47.4867 51.5601 47.7078 51.6528 47.91 51.7787C47.9955 51.8248 48.0626 51.8988 48.1 51.9883C48.1329 52.0671 48.1449 52.1531 48.135 52.2379C48.1238 52.3218 48.0872 52.4003 48.0299 52.4627C47.9727 52.5252 47.8977 52.5687 47.815 52.5873C47.7063 52.6024 47.5956 52.5814 47.5 52.5274C47.3425 52.4459 47.1741 52.3871 47 52.3527C46.8355 52.3182 46.6681 52.2998 46.5 52.2978C46.3302 52.293 46.1609 52.3184 46 52.3727C45.8794 52.4154 45.7724 52.4895 45.69 52.5873C45.6202 52.6771 45.5831 52.7881 45.585 52.9018C45.5836 52.9632 45.5958 53.0242 45.6209 53.0803C45.646 53.1364 45.6833 53.1863 45.73 53.2262C45.8793 53.3299 46.0503 53.3982 46.23 53.4259L47.01 53.5906C47.3803 53.6488 47.7269 53.8096 48.01 54.0549C48.1205 54.164 48.207 54.2949 48.2638 54.4393C48.3206 54.5838 48.3466 54.7384 48.34 54.8935C48.3441 55.1059 48.2979 55.3163 48.205 55.5074L48.165 55.4975ZM52.575 55.4975C52.4856 55.6932 52.3501 55.8645 52.18 55.9966C51.9905 56.137 51.7771 56.2419 51.55 56.3061C51.2846 56.3791 51.0103 56.4144 50.735 56.4109C50.3423 56.4087 49.9519 56.3515 49.575 56.2412C49.3998 56.1937 49.2317 56.1232 49.075 56.0316C48.9815 55.9858 48.9059 55.9103 48.86 55.8169C48.8202 55.733 48.8046 55.6397 48.815 55.5474C48.8235 55.4569 48.8602 55.3713 48.92 55.3028C48.9748 55.2321 49.0526 55.1826 49.14 55.163C49.2434 55.1459 49.3495 55.1653 49.44 55.2179C49.6324 55.3247 49.8397 55.4021 50.055 55.4475C50.2732 55.4972 50.4963 55.5223 50.72 55.5224C50.9685 55.5438 51.2177 55.4899 51.435 55.3677C51.4996 55.3265 51.5528 55.2696 51.5895 55.2024C51.6262 55.1352 51.6453 55.0599 51.645 54.9833C51.6474 54.922 51.635 54.861 51.6089 54.8054C51.5828 54.7498 51.5438 54.7013 51.495 54.6638C51.333 54.5646 51.1529 54.4984 50.965 54.4692L50.19 54.3044C49.8129 54.2456 49.4634 54.0712 49.19 53.8053C49.081 53.6883 48.9966 53.5508 48.9416 53.4008C48.8867 53.2508 48.8623 53.0913 48.87 52.9317C48.8659 52.7155 48.9139 52.5015 49.01 52.3078C49.1087 52.1136 49.2486 51.9433 49.42 51.8086C49.6038 51.6639 49.8146 51.557 50.04 51.4941C50.2979 51.4176 50.566 51.3806 50.835 51.3843C51.0894 51.3841 51.3429 51.4142 51.59 51.4742C51.8217 51.5302 52.0428 51.6228 52.245 51.7487C52.3305 51.7948 52.3976 51.8688 52.435 51.9584C52.4679 52.0372 52.4799 52.1231 52.47 52.2079C52.4588 52.2918 52.4222 52.3703 52.3649 52.4328C52.3077 52.4952 52.2327 52.5387 52.15 52.5574C52.0413 52.5725 51.9306 52.5514 51.835 52.4975C51.6775 52.416 51.5091 52.3571 51.335 52.3228C51.1706 52.288 51.0031 52.2696 50.835 52.2678C50.6652 52.2631 50.4959 52.2884 50.335 52.3427C50.2144 52.3855 50.1074 52.4596 50.025 52.5574C49.9552 52.6472 49.9181 52.7581 49.92 52.8718C49.9186 52.9333 49.9308 52.9943 49.9559 53.0504C49.981 53.1065 50.0183 53.1563 50.065 53.1963C50.2143 53.3 50.3853 53.3683 50.565 53.396L51.345 53.5607C51.7154 53.6188 52.0619 53.7797 52.345 54.0249C52.4555 54.134 52.542 54.265 52.5988 54.4094C52.6556 54.5538 52.6816 54.7085 52.675 54.8635C52.7077 55.0798 52.6871 55.3008 52.615 55.5074L52.575 55.4975ZM54.475 55.8219C54.4847 55.9691 54.4363 56.1143 54.34 56.2262C54.2887 56.2776 54.2267 56.3171 54.1585 56.3421C54.0903 56.3671 54.0174 56.377 53.945 56.371C53.8718 56.3777 53.798 56.3682 53.7288 56.3432C53.6597 56.3182 53.5969 56.2783 53.545 56.2262C53.4488 56.1143 53.4003 55.9691 53.41 55.8219V51.9633C53.4024 51.8164 53.4506 51.672 53.545 51.559C53.6561 51.4651 53.797 51.4135 53.9425 51.4135C54.0881 51.4135 54.229 51.4651 54.34 51.559C54.4344 51.672 54.4827 51.8164 54.475 51.9633V55.8219ZM54.845 46.0532C54.8505 46.4021 54.7643 46.7463 54.595 47.0515C54.4152 47.3421 54.1336 47.5555 53.805 47.6505C53.14 47.873 52.4577 48.0399 51.765 48.1497C51.0361 48.269 50.2987 48.3291 49.56 48.3294C48.1561 48.3737 46.7625 48.0755 45.5 47.4609C44.4119 46.9035 43.5152 46.0344 42.925 44.965C42.3185 43.801 42.0158 42.5031 42.045 41.1913C42.031 40.1572 42.2107 39.1295 42.575 38.1614C42.9177 37.2721 43.4545 36.4703 44.1464 35.8141C44.8383 35.1578 45.6679 34.6637 46.575 34.3677C47.6349 34.0143 48.7478 33.8454 49.865 33.8685C50.551 33.8709 51.2354 33.9344 51.91 34.0582C52.6217 34.1939 53.3092 34.4345 53.95 34.772C54.2628 34.8975 54.5164 35.1364 54.66 35.4409C54.7847 35.7229 54.8264 36.0346 54.78 36.3394C54.7354 36.6482 54.619 36.9422 54.44 37.198C54.2636 37.4454 54.0049 37.6223 53.71 37.6971C53.359 37.7801 52.9898 37.734 52.67 37.5673C52.2539 37.3768 51.8179 37.2328 51.37 37.1381C50.8767 37.0353 50.3739 36.9851 49.87 36.9883C49.0968 36.968 48.3305 37.1395 47.64 37.4875C47.0527 37.8012 46.5852 38.2995 46.31 38.9051C45.9962 39.6307 45.846 40.4163 45.87 41.2063C45.87 42.564 46.2034 43.589 46.87 44.2812C47.525 44.9251 48.5 45.2845 49.82 45.2845C50.2609 45.2808 50.7007 45.2407 51.135 45.1647C51.38 45.1247 51.635 45.0698 51.885 45.0099V42.7886H50.5C50.1195 42.8128 49.7441 42.6915 49.45 42.4492C49.3236 42.3239 49.2253 42.1732 49.1615 42.0071C49.0978 41.8411 49.07 41.6634 49.08 41.4858C49.0692 41.3104 49.0967 41.1347 49.1606 40.971C49.2244 40.8072 49.3232 40.6593 49.45 40.5374C49.7472 40.3018 50.1213 40.1844 50.5 40.2079H53.465C53.6602 40.1845 53.8582 40.2057 54.044 40.27C54.2297 40.3342 54.3984 40.4399 54.5372 40.5789C54.6759 40.7179 54.7812 40.8867 54.8449 41.0724C54.9087 41.258 54.9292 41.4558 54.905 41.6505L54.845 46.0532ZM59.845 56.2861C59.7566 56.3456 59.6515 56.3754 59.545 56.371C59.4156 56.3801 59.2873 56.341 59.185 56.2612C59.0963 56.1592 59.0329 56.0378 59 55.9068L58.715 55.2479H56.445L56.165 55.9068C56.1176 56.0365 56.0445 56.1553 55.95 56.2562C55.8547 56.3304 55.7357 56.3677 55.615 56.361C55.5029 56.3672 55.3919 56.3356 55.3 56.2712C55.2214 56.2132 55.1677 56.1276 55.15 56.0316C55.1327 55.9165 55.1537 55.799 55.21 55.6971L57 51.8635C57.0567 51.7303 57.1461 51.6135 57.26 51.5241C57.3636 51.4526 57.4866 51.4143 57.6125 51.4143C57.7385 51.4143 57.8614 51.4526 57.965 51.5241C58.0788 51.6126 58.1668 51.7297 58.22 51.8635L59.995 55.7171C60.0508 55.821 60.0735 55.9394 60.06 56.0565C60.0516 56.1054 60.0331 56.152 60.0055 56.1933C59.9779 56.2346 59.942 56.2696 59.9 56.2961L59.845 56.2861ZM64.845 55.8768C64.8553 56.007 64.814 56.1361 64.73 56.2362C64.6908 56.2806 64.6422 56.3157 64.5877 56.339C64.5332 56.3623 64.4743 56.3732 64.415 56.371C64.3067 56.376 64.1991 56.35 64.105 56.2961C64.0129 56.2294 63.9319 56.1485 63.865 56.0565L61.635 53.2163V55.8569C61.643 55.9946 61.5984 56.1302 61.51 56.2362C61.4607 56.2825 61.4025 56.3184 61.3389 56.3415C61.2753 56.3647 61.2076 56.3747 61.14 56.371C61.0724 56.3747 61.0048 56.3647 60.9412 56.3415C60.8776 56.3184 60.8193 56.2825 60.77 56.2362C60.7242 56.185 60.6894 56.1248 60.6679 56.0596C60.6464 55.9943 60.6386 55.9253 60.645 55.8569V51.9434C60.6339 51.7992 60.6786 51.6562 60.77 51.544C60.8136 51.4982 60.8665 51.462 60.9251 51.4379C60.9837 51.4138 61.0467 51.4024 61.11 51.4043C61.2107 51.3974 61.3108 51.4237 61.395 51.4792C61.4838 51.5445 61.5615 51.6237 61.625 51.7138L63.855 54.549V51.9134C63.8476 51.7765 63.8943 51.6421 63.985 51.5391C64.0338 51.4934 64.0912 51.4579 64.1538 51.4348C64.2165 51.4116 64.2832 51.4012 64.35 51.4043C64.4176 51.4006 64.4853 51.4106 64.5489 51.4338C64.6125 51.4569 64.6707 51.4928 64.72 51.5391C64.7653 51.5897 64.7997 51.649 64.8212 51.7134C64.8426 51.7778 64.8508 51.8458 64.845 51.9134V55.8768ZM72.58 47.2312C72.558 47.3921 72.502 47.5464 72.4158 47.6841C72.3296 47.8218 72.2152 47.9396 72.08 48.0299C71.7832 48.2231 71.4342 48.3207 71.08 48.3094C70.6403 48.3389 70.2044 48.2115 69.85 47.95C69.5051 47.6293 69.2398 47.2328 69.075 46.792L68.43 45.2945H62.16L61.51 46.792C61.339 47.2213 61.0879 47.6143 60.77 47.95C60.4439 48.2141 60.0286 48.3428 59.61 48.3094C59.2416 48.3234 58.878 48.2222 58.57 48.0199C58.4372 47.9272 58.3244 47.8087 58.2385 47.6715C58.1526 47.5342 58.0953 47.3811 58.07 47.2213C58.0102 46.8292 58.0731 46.4282 58.25 46.0732L63.25 35.366C63.4383 34.912 63.7457 34.5171 64.14 34.2229C64.4966 33.9815 64.9192 33.8559 65.35 33.8635C65.7749 33.8541 66.1917 33.9799 66.54 34.2229C66.9259 34.5256 67.2315 34.918 67.43 35.366L72.43 46.0732C72.6148 46.4329 72.6779 46.8427 72.61 47.2412L72.58 47.2312ZM76.795 22.4775C76.7251 22.3488 76.6843 22.2064 76.6756 22.0602C76.667 21.9141 76.6906 21.7678 76.7449 21.6318C76.7992 21.4958 76.8827 21.3733 76.9897 21.2732C77.0966 21.173 77.2244 21.0975 77.3638 21.0521C77.5032 21.0067 77.6509 20.9925 77.7965 21.0104C77.942 21.0284 78.0818 21.0781 78.206 21.156C78.3302 21.2339 78.4356 21.3381 78.515 21.4612C78.5943 21.5843 78.6455 21.7234 78.665 21.8685C78.865 22.3926 77 23.0016 76.825 22.4875L76.795 22.4775ZM87.605 46.6522C87.628 47.0907 87.4853 47.5218 87.205 47.8602C87.0694 48.01 86.9022 48.128 86.7155 48.2057C86.5287 48.2834 86.3271 48.3188 86.125 48.3094C85.7517 48.3312 85.38 48.2445 85.055 48.0599C84.7381 47.8427 84.4579 47.5764 84.225 47.2712L78.47 40.0482V46.5823C78.4874 46.8163 78.4584 47.0513 78.3846 47.274C78.3108 47.4967 78.1937 47.7027 78.04 47.8802C77.8695 48.0359 77.6689 48.1553 77.4505 48.2308C77.2321 48.3064 77.0005 48.3365 76.77 48.3194C76.5372 48.3363 76.3035 48.306 76.0827 48.2305C75.8619 48.1551 75.6586 48.0359 75.485 47.8802C75.3288 47.704 75.2094 47.4984 75.1339 47.2755C75.0583 47.0527 75.0281 46.817 75.045 46.5823V35.6955C75.0122 35.2064 75.1699 34.7236 75.485 34.3477C75.6309 34.1846 75.8108 34.0554 76.0121 33.9692C76.2134 33.883 76.4311 33.8418 76.65 33.8485C76.9996 33.8293 77.3472 33.9126 77.65 34.0881C77.9595 34.3294 78.2294 34.6174 78.45 34.9417L84.235 42.1297V35.5956C84.2182 35.364 84.2476 35.1314 84.3214 34.9112C84.3952 34.691 84.512 34.4876 84.665 34.3128C85.0271 34.0286 85.4744 33.8741 85.935 33.8741C86.3956 33.8741 86.8429 34.0286 87.205 34.3128C87.5122 34.6671 87.6667 35.1281 87.635 35.5956L87.605 46.6522Z" fill="white"/>
<path d="M84.145 10.5524C84.125 11.2405 84.043 11.9255 83.9 12.599C83.4889 12.6587 83.0712 12.6587 82.66 12.599C82.804 11.8823 82.8793 11.1535 82.885 10.4226C83.2848 10.582 83.7211 10.6269 84.145 10.5524Z" fill="white"/>
<path d="M86.13 10.8069C86.0537 11.1519 85.8926 11.4727 85.6614 11.7402C85.4301 12.0077 85.1358 12.2136 84.805 12.3393C84.87 11.5007 84.885 10.5423 84.885 10.3776C85.2827 10.2506 85.6664 10.0834 86.03 9.87842C86.1456 10.1735 86.1802 10.494 86.13 10.8069Z" fill="white"/>
<path d="M84.5 8.01175C84.5 8.01175 84.235 7.77714 84.12 8.18646C84.2686 8.23726 84.4139 8.29728 84.555 8.36616L84.5 8.01175Z" fill="white"/>
<path d="M85.81 7.2529C85.3085 7.22368 84.8054 7.25047 84.31 7.33276C83.9699 7.3908 83.6353 7.47764 83.31 7.59233C83.045 7.68218 82.31 7.94674 82.21 7.95672H82.095C82.095 8.11646 82.095 8.29117 82.135 8.50082C82.1812 8.93849 82.1929 9.37911 82.17 9.81862C82.3429 10.0825 82.5949 10.2851 82.89 10.3977C83.2888 10.5604 83.7251 10.6088 84.15 10.5374C84.1899 10.5398 84.23 10.5398 84.27 10.5374C84.48 10.4982 84.6872 10.4449 84.89 10.3777C85.2877 10.2507 85.6714 10.0835 86.035 9.87852C86.745 9.4692 87.295 8.93509 87.26 8.41596C87.225 7.89682 86.58 7.4875 85.81 7.2529Z" fill="white"/>
<path d="M85.5 6.81871C85.0758 6.83773 84.6541 6.89453 84.24 6.98843C83.5371 7.14412 82.8692 7.42845 82.27 7.82703C82.2506 7.8419 82.236 7.86211 82.228 7.88518C82.22 7.90825 82.219 7.93316 82.225 7.95681H82.11C82.11 8.11654 82.11 8.29125 82.15 8.5009C82.1962 8.93858 82.2079 9.3792 82.185 9.81871C82.1637 10.2976 82.1103 10.7746 82.025 11.2463C82.025 11.3711 81.985 11.4909 81.96 11.5957C81.905 11.8603 81.85 12.065 81.82 12.1848C81.82 12.2147 81.82 12.2397 81.82 12.2596C81.8191 12.2796 81.8191 12.2996 81.82 12.3195C80.555 11.8204 79.74 10.7821 79.915 9.73385C79.9128 9.7223 79.9128 9.71045 79.915 9.69891L79.465 9.5841C79.27 9.5841 78.035 9.54417 77.385 9.5841C77.3227 9.58939 77.2608 9.56975 77.213 9.5295C77.1652 9.48925 77.1353 9.43168 77.13 9.36946C77.1247 9.30723 77.1444 9.24546 77.1847 9.19771C77.225 9.14997 77.2827 9.12018 77.345 9.11488C78.075 9.05498 79.45 9.11488 79.51 9.11488H79.56L80.06 9.24466C80.0581 9.22641 80.0581 9.20801 80.06 9.18976L79.64 8.78044C79.37 8.72054 78.3 8.48593 77.6 8.37112C77.5695 8.36588 77.5403 8.35468 77.5141 8.33817C77.4879 8.32166 77.4652 8.30016 77.4473 8.2749C77.4294 8.24964 77.4167 8.22111 77.4099 8.19094C77.4031 8.16077 77.4023 8.12956 77.4075 8.09907C77.4128 8.06859 77.424 8.03944 77.4405 8.01329C77.457 7.98713 77.4786 7.96449 77.5039 7.94664C77.5292 7.9288 77.5578 7.9161 77.588 7.90928C77.6182 7.90246 77.6495 7.90165 77.68 7.90689C78.49 8.04167 79.795 8.33618 79.805 8.33618C79.8471 8.34797 79.8862 8.36836 79.92 8.39608L80.335 8.8004C80.6392 8.48617 81.0148 8.24987 81.43 8.11155C81.205 7.39275 81.565 6.4044 82.375 5.71055C83.34 4.88194 84.98 4.46263 85.535 5.17644C85.82 5.58576 85.75 6.19974 85.5 6.81871Z" fill="white"/>
</g>
<defs>
<clipPath id="clip0_6_401">
<rect width="99" height="60" fill="white"/>
</clipPath>
</defs>
</svg>
