<svg width="43" height="43" viewBox="0 0 43 43" fill="none" xmlns="http://www.w3.org/2000/svg">
<path fill-rule="evenodd" clip-rule="evenodd" d="M6.34267 8.87744C2.83971 8.87744 0 11.8972 0 15.6223V35.3082C0 39.0333 2.83971 42.053 6.34268 42.053H32.4633C35.9663 42.053 38.806 39.0333 38.806 35.3082V31.6554H29.4716C27.7201 31.6554 26.3002 30.1455 26.3002 28.283V21.497C26.3002 19.6345 27.7201 18.1246 29.4716 18.1246H38.806V15.6223C38.806 11.8972 35.9663 8.87744 32.4633 8.87744H6.34267Z" fill="#0D1288"/>
<path fill-rule="evenodd" clip-rule="evenodd" d="M29.9953 20.2272C28.9945 20.2272 28.1831 20.9894 28.1831 21.9297V27.9244C28.1831 28.8646 28.9945 29.6268 29.9953 29.6268H41.0158C42.0167 29.6268 42.828 28.8646 42.828 27.9244V21.9297C42.828 20.9894 42.0167 20.2272 41.0158 20.2272H29.9953ZM32.809 27.2126C33.996 27.2126 34.9582 26.1893 34.9582 24.9271C34.9582 23.6648 33.996 22.6415 32.809 22.6415C31.6219 22.6415 30.6597 23.6648 30.6597 24.9271C30.6597 26.1893 31.6219 27.2126 32.809 27.2126Z" fill="#0D1288"/>
<path fill-rule="evenodd" clip-rule="evenodd" d="M10.2943 6.79873H29.6343L27.7874 2.5859C26.9004 0.562659 24.5768 -0.282049 22.5975 0.699196L10.2943 6.79873Z" fill="#0D1288"/>
</svg>
